<?xml version="1.0" encoding="UTF-8"?>
<svg width="123px" height="100px" viewBox="0 0 103 22" version="1.1" xmlns="http://www.w3.org/2000/svg" xmlns:xlink="http://www.w3.org/1999/xlink">
    <!-- Generator: Sketch 49.3 (51167) - http://www.bohemiancoding.com/sketch -->
    <title>logo@1x</title>
    <desc>Created with Sketch.</desc>
    <defs>
        <polygon id="path-1" points="0 0.00156345178 11.6712748 0.00156345178 11.6712748 11.9339279 0 11.9339279"></polygon>
        <polygon id="path-3" points="0 21.9984365 102.99509 21.9984365 102.99509 0.111675127 0 0.111675127"></polygon>
    </defs>
    <g id="Page-1" stroke="none" stroke-width="1" fill="none" fill-rule="evenodd">
        <g id="切图" transform="translate(-2286.000000, -1974.000000)">
            <g id="Page-1" transform="translate(2286.000000, 1974.000000)">
                <path d="M8.05755689,11.4109645 C7.58009078,11.4109645 7.19154947,11.0132893 7.19154947,10.524599 L7.19154947,8.34537056 C7.19154947,7.8566802 7.58009078,7.45900508 8.05755689,7.45900508 L10.1867327,7.45900508 C10.6641988,7.45900508 11.0527401,7.8566802 11.0527401,8.34537056 L11.0527401,10.524599 C11.0527401,11.0132893 10.6641988,11.4109645 10.1867327,11.4109645 L8.05755689,11.4109645 Z" id="Fill-1" fill="#2EA7E0"></path>
                <path d="M10.1867218,6.82589645 L8.05754597,6.82589645 C7.23900148,6.82589645 6.57299301,7.50756142 6.57299301,8.34534822 L6.57299301,10.5245766 C6.57299301,11.3624751 7.23900148,12.0440284 8.05754597,12.0440284 L10.1867218,12.0440284 C11.0053754,12.0440284 11.6712748,11.3624751 11.6712748,10.5245766 L11.6712748,8.34534822 C11.6712748,7.50756142 11.0053754,6.82589645 10.1867218,6.82589645 M10.1867218,8.09218071 C10.3227822,8.09218071 10.4341837,8.20608934 10.4341837,8.34534822 L10.4341837,10.5245766 C10.4341837,10.6638355 10.3227822,10.7778558 10.1867218,10.7778558 L8.05754597,10.7778558 C7.92148559,10.7778558 7.81019322,10.6638355 7.81019322,10.5245766 L7.81019322,8.34534822 C7.81019322,8.20608934 7.92148559,8.09218071 8.05754597,8.09218071 L10.1867218,8.09218071" id="Fill-3" fill="#FFFFFF"></path>
                <path d="M2.07732669,11.4109645 C1.27296653,11.4109645 0.618523729,10.7411371 0.618523729,9.91786802 L0.618523729,8.95210152 C0.618523729,8.88375635 0.624961229,8.8228934 0.631616949,8.77420305 L0.631616949,2.23785787 C0.631616949,1.41458883 1.28595064,0.744761421 2.09031081,0.744761421 L9.59392627,0.744761421 C10.3982864,0.744761421 11.0527292,1.41458883 11.0527292,2.23785787 L11.0527292,3.20362437 C11.0527292,4.0268934 10.3982864,4.69672081 9.59392627,4.69672081 L4.49269852,4.69672081 L4.49269852,7.45900508 L6.62896653,7.45900508 C7.43332669,7.45900508 8.08776949,8.12883249 8.08776949,8.95210152 L8.08776949,9.91786802 C8.08776949,10.7411371 7.43332669,11.4109645 6.62896653,11.4109645 L2.07732669,11.4109645 Z" id="Fill-5" fill="#8FC31F"></path>
                <g id="Group-9" transform="translate(0.000000, 0.110112)">
                    <mask id="mask-2" fill="white">
                        <use xlink:href="#path-1"></use>
                    </mask>
                    <g id="Clip-8"></g>
                    <path d="M9.59392627,0.00155228426 L3.03389555,0.00155228426 L2.09031081,0.00155228426 C0.944872246,0.00155228426 0.0129622881,0.955369543 0.0129622881,2.12773503 L0.0129622881,3.09350152 L0.0129622881,8.62398883 C0.00597923729,8.68451675 -2.18220339e-05,8.75911574 -2.18220339e-05,8.84197868 L-2.18220339e-05,9.80774518 C-2.18220339e-05,10.9801107 0.931888136,11.9339279 2.07732669,11.9339279 L2.09031081,11.9339279 L3.03389555,11.9339279 L6.62896653,11.9339279 C7.77440508,11.9339279 8.70631504,10.9801107 8.70631504,9.80774518 L8.70631504,8.84197868 C8.70631504,7.6696132 7.77440508,6.71579594 6.62896653,6.71579594 L5.11124407,6.71579594 L5.11124407,5.21968426 L9.59392627,5.21968426 C10.7393648,5.21968426 11.6712748,4.26597868 11.6712748,3.09350152 L11.6712748,2.12773503 C11.6712748,0.955369543 10.7393648,0.00155228426 9.59392627,0.00155228426 M9.59392627,1.26783655 C10.0560078,1.26783655 10.4341837,1.65479086 10.4341837,2.12773503 L10.4341837,3.09350152 C10.4341837,3.56655736 10.0560078,3.95351168 9.59392627,3.95351168 L4.29422712,3.95351168 C4.0622589,3.95351168 3.87415297,4.14603959 3.87415297,4.38346091 L3.87415297,7.55201929 C3.87415297,7.78955228 4.0622589,7.98196853 4.29422712,7.98196853 L6.62896653,7.98196853 C7.09104809,7.98196853 7.46911483,8.36903452 7.46911483,8.84197868 L7.46911483,9.80774518 C7.46911483,10.2806893 7.09104809,10.6677553 6.62896653,10.6677553 L3.03389555,10.6677553 L2.09031081,10.6677553 L2.07732669,10.6677553 C1.61524513,10.6677553 1.23717839,10.2806893 1.23717839,9.80774518 L1.23717839,8.84197868 C1.23717839,8.79719695 1.24361589,8.75409036 1.2501625,8.71120711 L1.2501625,3.09350152 L1.2501625,2.12773503 C1.2501625,1.65479086 1.62822924,1.26783655 2.09031081,1.26783655 L3.03389555,1.26783655 L9.59392627,1.26783655" id="Fill-7" fill="#FFFFFF" mask="url(#mask-2)"></path>
                </g>
                <mask id="mask-4" fill="white">
                    <use xlink:href="#path-3"></use>
                </mask>
                <g id="Clip-11"></g>
                <path d="M14.7331462,7.45900508 L17.4319862,7.45900508 L17.4319862,4.69672081 L14.7331462,4.69672081 L14.7331462,7.45900508 Z M12.3307585,11.4109645 C11.5263983,11.4109645 10.8719555,10.7411371 10.8719555,9.91786802 L10.8719555,2.23785787 C10.8719555,1.41458883 11.5263983,0.744761421 12.3307585,0.744761421 L19.8343739,0.744761421 C20.6388432,0.744761421 21.2931769,1.41458883 21.2931769,2.23785787 L21.2931769,9.91786802 C21.2931769,10.7411371 20.6388432,11.4109645 19.8343739,11.4109645 L12.3307585,11.4109645 Z" id="Fill-10" fill="#EA5515" mask="url(#mask-4)"></path>
                <path d="M15.3518008,6.82580711 L16.8134407,6.82580711 L16.8134407,5.32980711 L15.3518008,5.32980711 L15.3518008,6.82580711 Z M19.8343739,0.111675127 L18.8907892,0.111675127 L13.2744523,0.111675127 L12.3307585,0.111675127 C11.1853199,0.111675127 10.25341,1.06549239 10.25341,2.23785787 L10.25341,3.20362437 L10.25341,8.95210152 L10.25341,9.91786802 C10.25341,11.0902335 11.1853199,12.0440508 12.3307585,12.0440508 L13.2744523,12.0440508 L18.8907892,12.0440508 L19.8343739,12.0440508 C20.9799216,12.0440508 21.9117225,11.0902335 21.9117225,9.91786802 L21.9117225,8.95210152 L21.9117225,3.20362437 L21.9117225,2.23785787 C21.9117225,1.06549239 20.9799216,0.111675127 19.8343739,0.111675127 Z M14.5346748,8.09209137 L17.6304576,8.09209137 C17.862535,8.09209137 18.0506409,7.89967513 18.0506409,7.66214213 L18.0506409,4.49358376 C18.0506409,4.25616244 17.862535,4.06363452 17.6304576,4.06363452 L14.5346748,4.06363452 C14.3027066,4.06363452 14.1146006,4.25616244 14.1146006,4.49358376 L14.1146006,7.66214213 C14.1146006,7.89967513 14.3027066,8.09209137 14.5346748,8.09209137 Z M19.8343739,1.37784772 C20.2965646,1.37784772 20.6746314,1.76491371 20.6746314,2.23785787 L20.6746314,3.20362437 L20.6746314,8.95210152 L20.6746314,9.91786802 C20.6746314,10.3908122 20.2965646,10.7777665 19.8343739,10.7777665 L18.8907892,10.7777665 L13.2744523,10.7777665 L12.3307585,10.7777665 C11.8686769,10.7777665 11.4906102,10.3908122 11.4906102,9.91786802 L11.4906102,8.95210152 L11.4906102,3.20362437 L11.4906102,2.23785787 C11.4906102,1.76491371 11.8686769,1.37784772 12.3307585,1.37784772 L13.2744523,1.37784772 L18.8907892,1.37784772 L19.8343739,1.37784772 Z" id="Fill-12" fill="#FFFFFF" mask="url(#mask-4)"></path>
                <path d="M4.49272034,17.4133909 L7.19156038,17.4133909 L7.19156038,14.6511066 L4.49272034,14.6511066 L4.49272034,17.4133909 Z M2.09033263,21.3653503 C1.28597246,21.3653503 0.631529661,20.6955228 0.631529661,19.8722538 L0.631529661,12.1922437 C0.631529661,11.3689746 1.28597246,10.6991472 2.09033263,10.6991472 L9.59394809,10.6991472 C10.3983083,10.6991472 11.0527511,11.3689746 11.0527511,12.1922437 L11.0527511,19.8722538 C11.0527511,20.6955228 10.3983083,21.3653503 9.59394809,21.3653503 L2.09033263,21.3653503 Z" id="Fill-13" fill="#2EA7E0" mask="url(#mask-4)"></path>
                <path d="M5.11126589,16.7801929 L6.57301483,16.7801929 L6.57301483,15.2841929 L5.11126589,15.2841929 L5.11126589,16.7801929 Z M9.59394809,10.0660609 L8.65036335,10.0660609 L3.03391737,10.0660609 L2.09033263,10.0660609 C0.944894068,10.0660609 0.0129841102,11.0198782 0.0129841102,12.1922437 L0.0129841102,13.1580102 L0.0129841102,18.9064873 L0.0129841102,19.8722538 C0.0129841102,21.0446193 0.944894068,21.9984365 2.09033263,21.9984365 L3.03391737,21.9984365 L8.65036335,21.9984365 L9.59394809,21.9984365 C10.7393867,21.9984365 11.6712966,21.0446193 11.6712966,19.8722538 L11.6712966,18.9064873 L11.6712966,13.1580102 L11.6712966,12.1922437 C11.6712966,11.0198782 10.7393867,10.0660609 9.59394809,10.0660609 Z M4.29424894,18.0464772 L7.39003178,18.0464772 C7.62210911,18.0464772 7.81010593,17.8540609 7.81010593,17.6165279 L7.81010593,14.4479695 C7.81010593,14.2105482 7.62210911,14.0180203 7.39003178,14.0180203 L4.29424894,14.0180203 C4.06217161,14.0180203 3.87417479,14.2105482 3.87417479,14.4479695 L3.87417479,17.6165279 C3.87417479,17.8540609 4.06217161,18.0464772 4.29424894,18.0464772 Z M9.59394809,11.3322335 C10.0560297,11.3322335 10.4342055,11.7192995 10.4342055,12.1922437 L10.4342055,13.1580102 L10.4342055,18.9064873 L10.4342055,19.8722538 C10.4342055,20.345198 10.0560297,20.7321523 9.59394809,20.7321523 L8.65036335,20.7321523 L3.03391737,20.7321523 L2.09033263,20.7321523 C1.62825106,20.7321523 1.25018432,20.345198 1.25018432,19.8722538 L1.25018432,18.9064873 L1.25018432,13.1580102 L1.25018432,12.1922437 C1.25018432,11.7192995 1.62825106,11.3322335 2.09033263,11.3322335 L3.03391737,11.3322335 L8.65036335,11.3322335 L9.59394809,11.3322335 Z" id="Fill-14" fill="#FFFFFF" mask="url(#mask-4)"></path>
                <path d="M18.2980373,14.6511178 C17.8205712,14.6511178 17.4320299,14.2534426 17.4320299,13.7647523 L17.4320299,11.5855239 C17.4320299,11.0968335 17.8205712,10.6991584 18.2980373,10.6991584 L20.4272131,10.6991584 C20.9046792,10.6991584 21.2932206,11.0968335 21.2932206,11.5855239 L21.2932206,13.7647523 C21.2932206,14.2534426 20.9046792,14.6511178 20.4272131,14.6511178 L18.2980373,14.6511178 Z" id="Fill-15" fill="#F8B62D" mask="url(#mask-4)"></path>
                <path d="M20.4271695,10.0660609 L18.2979936,10.0660609 C17.4794492,10.0660609 16.8134407,10.7477259 16.8134407,11.5855127 L16.8134407,13.7647411 C16.8134407,14.6026396 17.4794492,15.2841929 18.2979936,15.2841929 L20.4271695,15.2841929 C21.2458231,15.2841929 21.9117225,14.6026396 21.9117225,13.7647411 L21.9117225,11.5855127 C21.9117225,10.7477259 21.2458231,10.0660609 20.4271695,10.0660609 M20.4271695,11.3323452 C20.5632299,11.3323452 20.6746314,11.4462538 20.6746314,11.5855127 L20.6746314,13.7647411 C20.6746314,13.904 20.5632299,14.0180203 20.4271695,14.0180203 L18.2979936,14.0180203 C18.1619333,14.0180203 18.0506409,13.904 18.0506409,13.7647411 L18.0506409,11.5855127 C18.0506409,11.4462538 18.1619333,11.3323452 18.2979936,11.3323452 L20.4271695,11.3323452" id="Fill-16" fill="#FFFFFF" mask="url(#mask-4)"></path>
                <path d="M14.5462514,17.4710822 C14.0687853,17.4710822 13.680244,17.0734071 13.680244,16.5847168 L13.680244,14.4054883 C13.680244,13.916798 14.0687853,13.5191228 14.5462514,13.5191228 L20.4271804,13.5191228 C20.9046465,13.5191228 21.2931878,13.916798 21.2931878,14.4054883 L21.2931878,16.5847168 C21.2931878,17.0734071 20.9046465,17.4710822 20.4271804,17.4710822 L14.5462514,17.4710822 Z" id="Fill-17" fill="#F8B62D" mask="url(#mask-4)"></path>
                <path d="M20.4271804,12.8860365 L14.5462514,12.8860365 C13.7277069,12.8860365 13.0616984,13.5677015 13.0616984,14.4054883 L13.0616984,16.5847168 C13.0616984,17.4226152 13.7277069,18.1041685 14.5462514,18.1041685 L20.4271804,18.1041685 C21.245834,18.1041685 21.9117334,17.4226152 21.9117334,16.5847168 L21.9117334,14.4054883 C21.9117334,13.5677015 21.245834,12.8860365 20.4271804,12.8860365 M20.4271804,14.1523208 C20.5632408,14.1523208 20.6746423,14.2662294 20.6746423,14.4054883 L20.6746423,16.5847168 C20.6746423,16.7239756 20.5632408,16.8379959 20.4271804,16.8379959 L14.5462514,16.8379959 C14.410191,16.8379959 14.2987895,16.7239756 14.2987895,16.5847168 L14.2987895,14.4054883 C14.2987895,14.2662294 14.410191,14.1523208 14.5462514,14.1523208 L20.4271804,14.1523208" id="Fill-18" fill="#FFFFFF" mask="url(#mask-4)"></path>
                <path d="M12.330813,21.3653168 C11.5264529,21.3653168 10.8720101,20.6954893 10.8720101,19.8722203 L10.8720101,12.1922102 C10.8720101,11.3689411 11.5264529,10.6991137 12.330813,10.6991137 L16.9260969,10.6991137 C17.7304571,10.6991137 18.3848999,11.3689411 18.3848999,12.1922102 L18.3848999,13.1580883 C18.3848999,13.9813574 17.7304571,14.6510731 16.9260969,14.6510731 L14.7332007,14.6510731 L14.7332007,17.4133574 L17.4905238,17.4133574 C17.6677188,16.7933371 18.2284359,16.3391543 18.8908438,16.3391543 L19.8344285,16.3391543 C20.6387887,16.3391543 21.2932315,17.0088701 21.2932315,17.8321391 L21.2932315,19.8722203 C21.2932315,20.6954893 20.6387887,21.3653168 19.8344285,21.3653168 L12.330813,21.3653168 Z" id="Fill-19" fill="#F8B62D" mask="url(#mask-4)"></path>
                <path d="M16.9261078,10.0660497 L13.2744087,10.0660497 L12.3308239,10.0660497 C11.1853854,10.0660497 10.2534754,11.019867 10.2534754,12.1922325 L10.2534754,13.157999 L10.2534754,18.9064761 L10.2534754,19.8722426 C10.2534754,21.0446081 11.1853854,21.9984254 12.3308239,21.9984254 L13.2744087,21.9984254 L18.8908547,21.9984254 L19.8344394,21.9984254 C20.979878,21.9984254 21.9117879,21.0446081 21.9117879,19.8722426 L21.9117879,18.9064761 L21.9117879,17.8321614 C21.9117879,16.6597959 20.979878,15.7059787 19.8344394,15.7059787 L18.8908547,15.7059787 C18.1190093,15.7059787 17.4440538,16.1390548 17.0859542,16.7802934 L15.3517572,16.7802934 L15.3517572,15.2841817 L16.9261078,15.2841817 C18.0715464,15.2841817 19.0034564,14.3304761 19.0034564,13.157999 L19.0034564,12.1922325 C19.0034564,11.019867 18.0715464,10.0660497 16.9261078,10.0660497 M16.9261078,11.332334 C17.3881894,11.332334 17.7663653,11.7192883 17.7663653,12.1922325 L17.7663653,13.157999 C17.7663653,13.6310548 17.3881894,14.0180091 16.9261078,14.0180091 L14.5347403,14.0180091 C14.3026629,14.0180091 14.114557,14.2105371 14.114557,14.4479584 L14.114557,17.6165168 C14.114557,17.8540497 14.3026629,18.0465777 14.5347403,18.0465777 L17.8412148,18.0465777 C17.9568716,18.0465777 18.0505972,17.9505371 18.0505972,17.8322731 C18.0505972,17.3592173 18.428664,16.9722629 18.8908547,16.9722629 L19.8344394,16.9722629 C20.296521,16.9722629 20.6745877,17.3592173 20.6745877,17.8321614 L20.6745877,18.9064761 L20.6745877,19.8722426 C20.6745877,20.3451868 20.296521,20.7322528 19.8344394,20.7322528 L18.8908547,20.7322528 L13.2744087,20.7322528 L12.3308239,20.7322528 C11.8686333,20.7322528 11.4905665,20.3451868 11.4905665,19.8722426 L11.4905665,18.9064761 L11.4905665,13.157999 L11.4905665,12.1922325 C11.4905665,11.7192883 11.8686333,11.332334 12.3308239,11.332334 L13.2744087,11.332334 L16.9261078,11.332334" id="Fill-20" fill="#FFFFFF" mask="url(#mask-4)"></path>
                <path d="M25.8455478,16.2661635 C25.6523137,16.2661635 25.4703179,16.1738081 25.3533518,16.0164579 C25.2363857,15.8591076 25.1978698,15.6549655 25.2493698,15.4644477 L26.5417798,10.6770467 L25.3425499,10.6770467 C25.1494249,10.6770467 24.9672109,10.5845797 24.8502448,10.4272294 C24.7332787,10.2698792 24.6948719,10.0656254 24.7463719,9.87499594 L26.973856,1.63828528 C27.048051,1.36401117 27.2919122,1.17405178 27.570034,1.17405178 L30.6597067,1.17405178 C30.8539228,1.17405178 31.0370096,1.26752386 31.1538666,1.42632589 C31.2707236,1.58523959 31.3078211,1.79105685 31.2541389,1.98224467 L29.9724217,6.54261015 L31.0188974,6.54261015 C31.2099493,6.54261015 31.3901993,6.63295533 31.5073836,6.78740203 C31.6245679,6.94173706 31.6654842,7.14297563 31.6182395,7.33237665 L30.0908062,13.4555239 L30.6597067,13.4555239 C31.0012215,13.4555239 31.2782522,13.739067 31.2782522,14.0886102 L31.2782522,15.6330772 C31.2782522,15.9826203 31.0012215,16.2661635 30.6597067,16.2661635 L25.8455478,16.2661635 Z" id="Fill-21" fill="#00A1E9" mask="url(#mask-4)"></path>
                <path d="M30.659663,3.07342234 L30.6602109,3.07342234 L30.659663,3.07342234 Z M30.6602086,0.540965482 L30.659663,0.540965482 L27.5699904,0.540965482 C27.0138558,0.540965482 26.5260243,0.920772589 26.3776344,1.46943249 L24.1502594,9.70614315 C24.0471503,10.0872904 24.1239639,10.495798 24.3580052,10.8106102 C24.5919374,11.1253107 24.9561471,11.310133 25.3426154,11.310133 L25.7290836,11.310133 L24.6530391,15.2958183 C24.5501482,15.6769655 24.62718,16.0853614 24.8611122,16.3999503 C25.0950444,16.7145391 25.4592541,16.8992497 25.8455041,16.8992497 L30.659663,16.8992497 C31.3429109,16.8992497 31.8968632,16.3323868 31.8968632,15.6330772 L31.8968632,14.0887218 C31.8968632,13.4670264 31.4592224,12.9500822 30.8820296,12.8428741 L32.2176471,7.48894518 C32.3121365,7.11014315 32.2303039,6.70777766 31.9959353,6.39899594 C31.7615666,6.09021421 31.4009575,5.90952386 31.0189628,5.90952386 L30.7939776,5.90952386 L31.8382711,2.19409239 C31.8764596,2.07214315 31.8970815,1.9421533 31.8970815,1.80713807 C31.8970815,1.10782843 31.3434565,0.540965482 30.6602086,0.540965482 Z M30.659663,1.80713807 L29.1507785,7.17569645 L31.0189628,7.17569645 L29.2944766,14.0887218 L30.659663,14.0887218 L30.659663,15.6330772 L25.8455041,15.6330772 L27.3543887,10.0438487 L25.3426154,10.0438487 L27.5699904,1.80713807 L30.659663,1.80713807 Z M30.659663,1.80713807 L30.6602109,1.80713807 L30.659663,1.80713807 Z" id="Fill-22" fill="#FFFFFF" mask="url(#mask-4)"></path>
                <path d="M25.8455478,19.5020061 C25.5039238,19.5020061 25.2270022,19.2184629 25.2270022,18.8689198 L25.2270022,17.0303005 C25.2270022,16.6806457 25.5039238,16.3972142 25.8455478,16.3972142 L30.6597067,16.3972142 C31.0012215,16.3972142 31.2782522,16.6806457 31.2782522,17.0303005 L31.2782522,18.8689198 C31.2782522,19.2184629 31.0012215,19.5020061 30.6597067,19.5020061 L25.8455478,19.5020061 Z" id="Fill-23" fill="#00A1E9" mask="url(#mask-4)"></path>
                <path d="M30.659663,15.7641056 L25.8455041,15.7641056 C25.1622563,15.7641056 24.608413,16.3309685 24.608413,17.0303898 L24.608413,18.8688975 C24.608413,19.5682071 25.1622563,20.1351817 25.8455041,20.1351817 L30.659663,20.1351817 C31.3429109,20.1351817 31.8968632,19.5682071 31.8968632,18.8688975 L31.8968632,17.0303898 C31.8968632,16.3309685 31.3429109,15.7641056 30.659663,15.7641056 Z M25.8455041,18.8688975 L30.659663,18.8688975 L30.659663,17.0303898 L25.8455041,17.0303898 L25.8455041,18.8688975 Z" id="Fill-24" fill="#FFFFFF" mask="url(#mask-4)"></path>
                <path d="M39.884906,5.9910132 L39.884906,5.67508426 C39.884906,5.45262741 39.7080385,5.27171371 39.4908001,5.27171371 L35.1582535,5.27171371 L35.1582535,5.9910132 L39.884906,5.9910132 Z M31.018941,20.8257137 C30.8449103,20.8257137 30.6790628,20.7507797 30.5618785,20.6192264 C30.4445851,20.4876731 30.3869749,20.3116731 30.402905,20.1344447 C30.4072694,20.0868711 30.8314897,15.3665868 30.8314897,13.9415005 L30.8314897,3.31483046 C30.8314897,2.96517563 31.1084113,2.68163249 31.4500353,2.68163249 L35.0707471,2.68163249 L35.0707471,2.13810964 C35.0707471,1.78845482 35.3477779,1.50491168 35.6894018,1.50491168 L39.4256613,1.50491168 C39.7672853,1.50491168 40.0442069,1.78845482 40.0442069,2.13810964 L40.0442069,2.57129746 L41.7608372,2.57129746 C42.641138,2.57129746 43.1642122,2.9325665 43.4478986,3.23565279 C44.0650257,3.89453604 44.0723361,4.77956142 44.0680808,4.94271878 L44.0680808,8.27890152 C44.0680808,8.62855635 43.7911592,8.91198782 43.4495353,8.91198782 L35.3020607,8.91198782 L35.3020607,14.8976629 C35.3020607,16.4611147 34.884387,20.1118863 34.866602,20.266668 C34.829941,20.5855005 34.5660035,20.8257137 34.2523118,20.8257137 L31.018941,20.8257137 Z" id="Fill-25" fill="#00A1E9" mask="url(#mask-4)"></path>
                <path d="M39.425705,0.871847716 L35.6893363,0.871847716 C35.0355482,0.871847716 34.5001446,1.39102538 34.4553003,2.04856853 L31.4500789,2.04856853 C30.766831,2.04856853 30.2128787,2.61543147 30.2128787,3.31474112 L30.2128787,13.9415228 C30.2128787,15.3379086 29.791277,20.0290457 29.7870217,20.0762843 C29.7550524,20.4308528 29.8703819,20.7827411 30.1048596,21.0458477 C30.3392283,21.3089543 30.6710323,21.458934 31.0189846,21.458934 L34.2523554,21.458934 C34.8796298,21.458934 35.407723,20.9782843 35.4809359,20.3406193 C35.4989391,20.1844975 35.9205408,16.4978782 35.9205408,14.8976853 L35.9205408,9.54509645 L43.4494698,9.54509645 C44.1327177,9.54509645 44.68667,8.9782335 44.68667,8.27881218 L44.68667,4.95145178 C44.6931075,4.66991878 44.6614656,3.61659898 43.8945302,2.7975736 C43.5274836,2.40559391 42.8592929,1.9382335 41.7608808,1.9382335 L40.6475207,1.9382335 C40.5539041,1.33384772 40.0425048,0.871847716 39.425705,0.871847716 M34.5397516,6.62412183 L40.5034952,6.62412183 L40.5034952,5.6751066 C40.5034952,5.1026599 40.0500334,4.63853807 39.4907346,4.63853807 L34.5397516,4.63853807 L34.5397516,6.62412183 M39.425705,2.13813198 L39.425705,3.20451777 L41.7608808,3.20451777 C43.5212643,3.20451777 43.4494698,4.93269036 43.4494698,4.93269036 L43.4494698,8.27881218 L34.6834497,8.27881218 L34.6834497,14.8976853 C34.6834497,16.4420406 34.2523554,20.1926497 34.2523554,20.1926497 L31.0189846,20.1926497 C31.0189846,20.1926497 31.4500789,15.4123959 31.4500789,13.9415228 L31.4500789,3.31474112 L35.6893363,3.31474112 L35.6893363,2.13813198 L39.425705,2.13813198" id="Fill-26" fill="#FFFFFF" mask="url(#mask-4)"></path>
                <path d="M41.5453228,20.8257584 C41.2036988,20.8257584 40.9267772,20.5422152 40.9267772,20.1926721 L40.9267772,20.1638599 L39.4256395,20.1638599 C39.3663927,20.1638599 39.309219,20.1553726 39.2551003,20.139403 C39.2008726,20.1553726 39.1435897,20.1638599 39.0843429,20.1638599 L37.6508535,20.1638599 L37.6508535,20.1926721 C37.6508535,20.5422152 37.3738228,20.8257584 37.0321988,20.8257584 L34.8989859,20.8257584 C34.557362,20.8257584 34.2804404,20.5422152 34.2804404,20.1926721 L34.2804404,9.30847919 C34.2804404,8.95882437 34.557362,8.67528122 34.8989859,8.67528122 L42.2280251,8.67528122 C42.2405728,8.67528122 42.2531204,8.67572792 42.2656681,8.67650964 C42.9757571,8.72084467 44.0322709,9.24884467 44.0322709,10.5220528 L44.0322709,20.1926721 C44.0322709,20.5422152 43.7553493,20.8257584 43.4137253,20.8257584 L41.5453228,20.8257584 Z" id="Fill-27" fill="#00A1E9" mask="url(#mask-4)"></path>
                <path d="M42.2279596,8.04217259 L34.8989204,8.04217259 C34.2156726,8.04217259 33.6618293,8.60903553 33.6618293,9.30845685 L33.6618293,20.1926497 C33.6618293,20.8919594 34.2156726,21.458934 34.8989204,21.458934 L36.8390084,21.458934 L37.0322425,21.458934 C37.5016344,21.458934 37.9099247,21.1912487 38.1196344,20.7970355 L39.0843865,20.7970355 C39.142324,20.7970355 39.1992796,20.7929036 39.2550349,20.7850863 C39.3107901,20.7929036 39.3678548,20.7970355 39.4256832,20.7970355 L40.4579745,20.7970355 C40.6675751,21.1912487 41.0759745,21.458934 41.5453664,21.458934 L41.5812637,21.458934 L43.413769,21.458934 C44.0970168,21.458934 44.6508601,20.8919594 44.6508601,20.1926497 L44.6508601,10.5220305 C44.6508601,9.58541117 44.195216,8.80067005 43.4005666,8.36926904 C42.905752,8.10057868 42.4355963,8.05278173 42.3032457,8.04451777 C42.2781503,8.04295431 42.253055,8.04217259 42.2279596,8.04217259 Z M37.0322425,13.9783756 L37.3735391,13.9783756 L37.3735391,10.783797 L37.0322425,10.783797 L37.0322425,13.9783756 Z M39.0843865,13.9783756 L39.4256832,13.9783756 L39.4256832,10.783797 L39.0843865,10.783797 L39.0843865,13.9783756 Z M41.2040698,13.9783756 L41.5453664,13.9783756 L41.5453664,10.783797 L41.2040698,10.783797 L41.2040698,13.9783756 Z M42.2279596,9.30845685 C42.2279596,9.30845685 43.413769,9.38238579 43.413769,10.5220305 L43.413769,20.1926497 L41.5812637,20.1926497 L41.5453664,20.1926497 L41.5453664,15.7846091 L41.2040698,15.7846091 L41.2040698,19.5307513 L39.4256832,19.5307513 L39.4256832,15.7846091 L39.0843865,15.7846091 L39.0843865,19.5307513 L37.3735391,19.5307513 L37.3735391,15.7846091 L37.0322425,15.7846091 L37.0322425,20.1926497 L36.8390084,20.1926497 L34.8989204,20.1926497 L34.8989204,9.30845685 L42.2279596,9.30845685 Z" id="Fill-28" fill="#FFFFFF" mask="url(#mask-4)"></path>
                <path d="M47.4013638,20.5683807 C47.0597398,20.5683807 46.7828182,20.2848376 46.7828182,19.9352944 L46.7828182,9.02228934 L45.2816805,9.02228934 C44.9400566,9.02228934 44.663135,8.73885787 44.663135,8.38920305 L44.663135,6.62417766 C44.663135,6.27452284 44.9400566,5.9909797 45.2816805,5.9909797 L46.7828182,5.9909797 L46.7828182,4.88171066 C46.6857102,4.88282741 46.5807462,4.88349746 46.4699994,4.88349746 C46.1528161,4.88349746 45.8534178,4.87791371 45.5804242,4.86663452 C45.2486201,4.85301015 44.9865375,4.57382234 44.9865375,4.23399492 L44.9865375,2.54256345 C44.9865375,2.19704061 45.2574581,1.91528426 45.5949358,1.90958883 C45.6383617,1.90891878 49.9591244,1.82951777 52.1174326,1.19844162 C52.173297,1.18202538 52.2304708,1.17409645 52.2873172,1.17409645 C52.4202133,1.17409645 52.5512547,1.21798477 52.6598193,1.30174112 C52.8147557,1.42134518 52.9058627,1.60851269 52.9058627,1.80718274 L52.9058627,3.64569036 C52.9058627,3.96753807 52.6699665,4.23823858 52.3575841,4.27475635 C52.3483097,4.2758731 51.651314,4.35761929 51.0735756,4.44271574 L51.0735756,5.77042132 L52.6825142,5.77042132 C53.0241381,5.77042132 53.3010597,6.05385279 53.3010597,6.40350761 L53.3010597,8.38920305 C53.3010597,8.73885787 53.0241381,9.02228934 52.6825142,9.02228934 L51.0376784,9.02228934 L51.0376784,19.9352944 C51.0376784,20.2848376 50.7607568,20.5683807 50.4191328,20.5683807 L47.4013638,20.5683807 Z" id="Fill-29" fill="#00A1E9" mask="url(#mask-4)"></path>
                <path d="M52.2872735,0.54093198 C52.1735807,0.54093198 52.0593424,0.557013198 51.9475044,0.589622335 C50.2193085,1.09506396 46.7686994,1.25676954 45.5849631,1.27653604 C44.9095712,1.28781523 44.3678392,1.85132792 44.3678392,2.54259695 L44.3678392,4.23402843 C44.3678392,4.73589645 44.6538169,5.17176447 45.0705087,5.3763533 C44.4878604,5.47887107 44.0445458,5.99849543 44.0445458,6.62421117 L44.0445458,8.38912487 C44.0445458,9.08854619 44.598389,9.65540914 45.281746,9.65540914 L46.164229,9.65540914 L46.164229,19.9352162 C46.164229,20.6345259 46.7180722,21.2015005 47.4013201,21.2015005 L50.4191983,21.2015005 C51.1024462,21.2015005 51.6562894,20.6345259 51.6562894,19.9352162 L51.6562894,9.65540914 L52.6825797,9.65540914 C53.3658275,9.65540914 53.9196708,9.08854619 53.9196708,8.38912487 L53.9196708,6.40354112 C53.9196708,5.70423147 53.3658275,5.13725685 52.6825797,5.13725685 L51.6922958,5.13725685 L51.6922958,4.99587614 C51.9947492,4.95589645 52.2757078,4.92161218 52.4278074,4.90374416 C53.0526814,4.83070863 53.5244737,4.28941929 53.5244737,3.64572386 L53.5244737,1.80721624 C53.5244737,1.40987614 53.3422597,1.03554112 53.0323869,0.79622132 C52.8152576,0.628708629 52.5530659,0.54093198 52.2872735,0.54093198 M52.2873826,1.80721624 L52.2873826,3.64572386 C52.2873826,3.64572386 51.0298879,3.7928 50.4550956,3.90313503 L50.4550956,6.40354112 L52.6825797,6.40354112 L52.6825797,8.38912487 L50.4191983,8.38912487 L50.4191983,19.9352162 L47.4013201,19.9352162 L47.4013201,8.38912487 L45.281746,8.38912487 L45.281746,6.62421117 L47.4013201,6.62421117 L47.4013201,4.23402843 C47.4013201,4.23402843 47.002086,4.25044467 46.4699557,4.25044467 C46.203836,4.25044467 45.9044377,4.24631269 45.6050394,4.23402843 L45.6050394,2.54259695 C45.6050394,2.54259695 50.0240013,2.46900305 52.2873826,1.80721624" id="Fill-30" fill="#FFFFFF" mask="url(#mask-4)"></path>
                <path d="M44.8865053,19.7594396 C44.7123655,19.7594396 44.5462998,19.6842822 44.4291155,19.5523939 C44.3117129,19.4206173 44.254321,19.2442822 44.2705784,19.0668305 C44.2760339,19.0087594 44.804018,13.2214193 44.6637023,9.73905381 C44.6567193,9.56673909 44.7186939,9.39900305 44.8353326,9.27459695 C44.9520805,9.15019086 45.1132362,9.07983553 45.2817023,9.07983553 L47.0420858,9.07983553 C47.2061875,9.07983553 47.3635244,9.14650558 47.4795085,9.26532792 C47.5954926,9.38403858 47.6607405,9.54518579 47.6606314,9.71314518 C47.6606314,9.98909442 47.6562669,16.5029929 47.4064047,19.1864345 C47.376072,19.5112975 47.1095159,19.7594396 46.7905869,19.7594396 L44.8865053,19.7594396 Z" id="Fill-31" fill="#00A1E9" mask="url(#mask-4)"></path>
                <path d="M47.0420967,10.9791614 L47.0426446,10.9791614 L47.0420967,10.9791614 Z M47.0420967,8.44670457 L45.2817132,8.44670457 C44.944781,8.44670457 44.6223605,8.58741523 44.3890829,8.83622741 C44.1558054,9.08503959 44.0317471,9.42051168 44.0456041,9.76514112 C44.1842832,13.2064102 43.6601179,18.9497503 43.6548806,19.0073746 C43.6221476,19.3622782 43.7371497,19.7149482 43.9715183,19.9786132 C44.2059961,20.2422782 44.5382365,20.3924812 44.8865162,20.3924812 L46.7905978,20.3924812 C47.4284558,20.3924812 47.9616772,19.8963086 48.0222334,19.2464711 C48.2748234,16.5334355 48.2791878,9.99038985 48.2792969,9.71321218 C48.2792969,9.3772934 48.1490194,9.05522234 47.9169421,8.81768934 C47.6849738,8.58015635 47.3703001,8.44670457 47.0420967,8.44670457 Z M47.0420967,9.71287716 C47.0420967,9.71287716 47.0405692,16.4419736 46.7905978,19.1263086 L44.8865162,19.1263086 C44.8865162,19.1263086 45.4254113,13.279669 45.2817132,9.71287716 L47.0420967,9.71287716 Z" id="Fill-32" fill="#FFFFFF" mask="url(#mask-4)"></path>
                <path d="M51.1377433,16.1190985 C50.7961194,16.1190985 50.5191978,15.8355553 50.5191978,15.4860122 L50.5191978,9.7129665 C50.5191978,9.36331168 50.7961194,9.07976853 51.1377433,9.07976853 L52.6825251,9.07976853 C53.024149,9.07976853 53.3010707,9.36331168 53.3010707,9.7129665 L53.3010707,15.4860122 C53.3010707,15.8355553 53.024149,16.1190985 52.6825251,16.1190985 L51.1377433,16.1190985 Z" id="Fill-33" fill="#00A1E9" mask="url(#mask-4)"></path>
                <path d="M52.682536,8.4466934 L51.1376451,8.4466934 C50.4543972,8.4466934 49.900554,9.01355635 49.900554,9.71297766 L49.900554,15.4860234 C49.900554,16.185333 50.4543972,16.7521959 51.1376451,16.7521959 L52.682536,16.7521959 C53.3657839,16.7521959 53.9197362,16.185333 53.9197362,15.4860234 L53.9197362,9.71297766 C53.9197362,9.01355635 53.3657839,8.4466934 52.682536,8.4466934 Z M51.1376451,15.4860234 L52.682536,15.4860234 L52.682536,9.71297766 L51.1376451,9.71297766 L51.1376451,15.4860234 Z" id="Fill-34" fill="#FFFFFF" mask="url(#mask-4)"></path>
                <path d="M58.2433358,6.24839086 L58.2433358,4.83994416 C58.2433358,4.71296954 58.1424089,4.60978173 58.0183506,4.60978173 L57.2529428,4.60978173 L57.2529428,6.24839086 L58.2433358,6.24839086 Z M53.3651292,9.05903046 C53.0235053,9.05903046 52.7465837,8.77548731 52.7465837,8.42594416 L52.7465837,2.13807614 C52.7465837,1.78842132 53.0235053,1.50487817 53.3651292,1.50487817 L60.6043708,1.50487817 C61.9260222,1.50487817 63.0011939,2.60543655 63.0011939,3.95815736 L63.0011939,8.42594416 C63.0011939,8.77548731 62.7242722,9.05903046 62.3827574,9.05903046 L53.3651292,9.05903046 Z" id="Fill-35" fill="#00A1E9" mask="url(#mask-4)"></path>
                <path d="M60.6043599,0.871847716 L53.3651183,0.871847716 C52.6818704,0.871847716 52.1280272,1.43871066 52.1280272,2.13813198 L52.1280272,8.42588832 C52.1280272,9.12519797 52.6818704,9.69217259 53.3651183,9.69217259 L62.3826374,9.69217259 C63.0658853,9.69217259 63.6198376,9.12519797 63.6198376,8.42588832 L63.6198376,3.9582132 C63.6198376,2.25639594 62.2670897,0.871847716 60.6043599,0.871847716 M56.6343863,6.88153299 L58.8618704,6.88153299 L58.8618704,4.83988832 C58.8618704,4.36314721 58.4842401,3.97663959 58.0184488,3.97663959 L56.6343863,3.97663959 L56.6343863,6.88153299 M60.6043599,2.13813198 C61.5864605,2.13813198 62.3826374,2.95291371 62.3826374,3.9582132 L62.3826374,8.42588832 L53.3651183,8.42588832 L53.3651183,2.13813198 L60.6043599,2.13813198" id="Fill-36" fill="#FFFFFF" mask="url(#mask-4)"></path>
                <path d="M52.6825469,20.5683807 C52.340923,20.5683807 52.0640014,20.2848376 52.0640014,19.9352944 L52.0640014,18.1668071 C52.0640014,17.8171523 52.340923,17.5336091 52.6825469,17.5336091 L55.1535649,17.5336091 L55.1535649,16.2678832 L53.2306073,16.2678832 C52.8890925,16.2678832 52.6120618,15.9844518 52.6120618,15.634797 L52.6120618,13.8663096 C52.6120618,13.5166548 52.8890925,13.2331117 53.2306073,13.2331117 L55.1535649,13.2331117 L55.1535649,12.1144619 L53.0058404,12.1144619 C52.6642164,12.1144619 52.3872948,11.8310305 52.3872948,11.4813756 L52.3872948,9.71288832 C52.3872948,9.36334518 52.6642164,9.07980203 53.0058404,9.07980203 L62.5622546,9.07980203 C62.9038785,9.07980203 63.1808001,9.36334518 63.1808001,9.71288832 L63.1808001,11.4813756 C63.1808001,11.8310305 62.9038785,12.1144619 62.5622546,12.1144619 L60.3785236,12.1144619 L60.3785236,13.2331117 L62.3826592,13.2331117 C62.7242832,13.2331117 63.0012048,13.5166548 63.0012048,13.8663096 L63.0012048,15.634797 C63.0012048,15.9844518 62.7242832,16.2678832 62.3826592,16.2678832 L60.3785236,16.2678832 L60.3785236,17.5336091 L62.7744738,17.5336091 C63.1160978,17.5336091 63.3930194,17.8171523 63.3930194,18.1668071 L63.3930194,19.9352944 C63.3930194,20.2848376 63.1160978,20.5683807 62.7744738,20.5683807 L52.6825469,20.5683807 Z" id="Fill-37" fill="#00A1E9" mask="url(#mask-4)"></path>
                <path d="M62.5622764,8.4466934 L53.0058622,8.4466934 C52.3226143,8.4466934 51.7687711,9.01355635 51.7687711,9.71297766 L51.7687711,11.4813533 C51.7687711,12.0794853 52.1738971,12.5806832 52.7185751,12.7133533 C52.2908632,12.9125817 51.993538,13.3539218 51.993538,13.8662873 L51.993538,15.6347746 C51.993538,16.3226934 52.5294872,16.8825208 53.1973505,16.9005005 L52.6825687,16.9005005 C51.9993209,16.9005005 51.4453685,17.4674751 51.4453685,18.1667848 L51.4453685,19.9352721 C51.4453685,20.6345817 51.9993209,21.2014447 52.6825687,21.2014447 L62.7744957,21.2014447 C63.4577435,21.2014447 64.0115868,20.6345817 64.0115868,19.9352721 L64.0115868,18.1667848 C64.0115868,17.4674751 63.4577435,16.9005005 62.7744957,16.9005005 L62.4159596,16.9005005 C63.083823,16.8825208 63.6197721,16.3226934 63.6197721,15.6347746 L63.6197721,13.8662873 C63.6197721,13.3474447 63.3149183,12.9015259 62.8784776,12.7058711 C63.4085349,12.5628152 63.7994766,12.0688761 63.7994766,11.4813533 L63.7994766,9.71297766 C63.7994766,9.01355635 63.2455243,8.4466934 62.5622764,8.4466934 M62.5622764,9.71297766 L62.5622764,11.4813533 L59.7599999,11.4813533 L59.7599999,13.8662873 L62.382681,13.8662873 L62.382681,15.6347746 L59.7599999,15.6347746 L59.7599999,18.1667848 L62.7744957,18.1667848 L62.7744957,19.9352721 L52.6825687,19.9352721 L52.6825687,18.1667848 L55.7721323,18.1667848 L55.7721323,15.6347746 L53.2307382,15.6347746 L53.2307382,13.8662873 L55.7721323,13.8662873 L55.7721323,11.4813533 L53.0058622,11.4813533 L53.0058622,9.71297766 L62.5622764,9.71297766" id="Fill-38" fill="#FFFFFF" mask="url(#mask-4)"></path>
                <path d="M69.5679894,20.8993188 C69.2263655,20.8993188 68.9494439,20.6157756 68.9494439,20.2662325 L68.9494439,18.574801 C68.9494439,18.2251462 69.2263655,17.941603 69.5679894,17.941603 L70.7457246,17.941603 L70.7457246,1.66015127 C70.7457246,1.31049645 71.0226462,1.0269533 71.3642701,1.0269533 L75.2802341,1.0269533 C75.6217489,1.0269533 75.8986706,1.31049645 75.8986706,1.66015127 L75.8986706,20.2662325 C75.8986706,20.6157756 75.6217489,20.8993188 75.2802341,20.8993188 L69.5679894,20.8993188 Z" id="Fill-39" fill="#00A1E9" mask="url(#mask-4)"></path>
                <path d="M75.2802341,0.393855838 L71.3642701,0.393855838 C70.6810222,0.393855838 70.1270699,0.960718782 70.1270699,1.6601401 L70.1270699,17.3085056 L69.5678803,17.3085056 C68.8846324,17.3085056 68.3307892,17.8753685 68.3307892,18.5746782 L68.3307892,20.2662213 C68.3307892,20.965531 68.8846324,21.5323939 69.5678803,21.5323939 L75.2802341,21.5323939 C75.963482,21.5323939 76.5174343,20.965531 76.5174343,20.2662213 L76.5174343,1.6601401 C76.5174343,0.960718782 75.963482,0.393855838 75.2802341,0.393855838 M75.2802341,1.6601401 L75.2802341,20.2662213 L69.5678803,20.2662213 L69.5678803,18.5746782 L71.3642701,18.5746782 L71.3642701,1.6601401 L75.2802341,1.6601401" id="Fill-40" fill="#FFFFFF" mask="url(#mask-4)"></path>
                <path d="M64.250789,17.1487096 C64.0670475,17.1487096 63.8927985,17.065065 63.7752869,16.9205574 C63.6577752,16.7759381 63.6091121,16.5854203 63.6424998,16.4004863 L65.8340867,4.26609036 C65.8883144,3.96590761 66.1441778,3.74802944 66.4423758,3.74802944 L70.250539,3.74802944 C70.4336258,3.74802944 70.6074383,3.83111574 70.72495,3.97472995 C70.8424617,4.11845584 70.8916703,4.3080802 70.8594828,4.49256751 L68.7399087,16.6269635 C68.6870994,16.928933 68.4305814,17.1487096 68.1309648,17.1487096 L64.250789,17.1487096 Z" id="Fill-41" fill="#00A1E9" mask="url(#mask-4)"></path>
                <path d="M70.250539,5.64737766 L70.2510869,5.64737766 L70.250539,5.64737766 Z M70.250539,3.11492081 L66.4423758,3.11492081 C65.8457614,3.11492081 65.334253,3.55056548 65.2257975,4.15093096 L63.0343197,16.2854386 C62.9674352,16.6551949 63.0647614,17.0363421 63.2998939,17.325469 C63.5349172,17.6145959 63.8833059,17.7817736 64.250789,17.7817736 L68.1308557,17.7817736 C68.7301979,17.7817736 69.2432339,17.3422203 69.3487434,16.7383929 L71.4683176,4.60399695 C71.5328017,4.23502234 71.4342752,3.8557736 71.1991428,3.5684335 C70.9641195,3.28098173 70.6167127,3.11492081 70.250539,3.11492081 Z M70.250539,4.3810934 L68.1308557,16.515601 L64.250789,16.515601 L66.4423758,4.3810934 L70.250539,4.3810934 Z" id="Fill-42" fill="#FFFFFF" mask="url(#mask-4)"></path>
                <path d="M78.4777294,17.1487096 C78.1781129,17.1487096 77.9214858,16.928933 77.8687856,16.6269635 L75.7491023,4.49256751 C75.7169148,4.3080802 75.7661235,4.11845584 75.8837443,3.97472995 C76.0012559,3.83111574 76.1750684,3.74802944 76.3580462,3.74802944 L80.1662093,3.74802944 C80.4644074,3.74802944 80.7202708,3.96590761 80.7744985,4.26609036 L82.9660854,16.4004863 C82.999364,16.5854203 82.9507008,16.7759381 82.8332983,16.9205574 C82.7157867,17.065065 82.5414286,17.1487096 82.3577962,17.1487096 L78.4777294,17.1487096 Z" id="Fill-43" fill="#00A1E9" mask="url(#mask-4)"></path>
                <path d="M80.1662093,3.11490964 L76.3580462,3.11490964 C75.9917633,3.11490964 75.6444657,3.28097056 75.4093333,3.56842234 C75.17431,3.85576244 75.0756744,4.23501117 75.1401585,4.60398579 L77.2598417,16.7383817 C77.3653513,17.3422091 77.8783873,17.7817624 78.4776203,17.7817624 L82.3576871,17.7817624 C82.7251701,17.7817624 83.073668,17.6145848 83.3086913,17.3254579 C83.5437146,17.036331 83.6410409,16.6552954 83.5742655,16.2854274 L81.3827877,4.15103147 C81.2743322,3.55055431 80.7627146,3.11490964 80.1662093,3.11490964 M80.1662093,4.38119391 L82.3576871,16.5155898 L78.4776203,16.5155898 L76.3580462,4.38119391 L80.1662093,4.38119391" id="Fill-44" fill="#FFFFFF" mask="url(#mask-4)"></path>
                <path d="M84.4054776,11.2653178 C84.0821842,11.2653178 83.8133368,11.0104751 83.788787,10.6804751 L83.2139946,2.99543959 C83.2007923,2.81966294 83.25993,2.6461198 83.3768961,2.51691168 C83.4939713,2.3874802 83.6584003,2.31399797 83.8306853,2.31399797 L86.4892637,2.31399797 C86.8159395,2.31399797 87.0863145,2.57408934 87.106609,2.90777462 L87.5736005,10.5929218 C87.5842933,10.7673584 87.5239554,10.9384447 87.4070984,11.0657543 C87.2900232,11.193064 87.1269035,11.2653178 86.9562552,11.2653178 L84.4054776,11.2653178 Z" id="Fill-45" fill="#00A1E9" mask="url(#mask-4)"></path>
                <path d="M86.4892528,1.68084467 L83.8306744,1.68084467 C83.4862136,1.68084467 83.1572464,1.82792081 82.923096,2.08656041 C82.6890547,2.3452 82.5708883,2.69217462 82.5971839,3.04372792 L83.1719763,10.7288751 C83.2212941,11.3887635 83.7588799,11.8984487 84.4055758,11.8984487 L86.9563534,11.8984487 C87.2977591,11.8984487 87.6239985,11.7540528 87.8578216,11.4993218 C88.0916447,11.2447025 88.2123206,10.9024183 88.1910441,10.5535452 L87.7240525,2.86850964 C87.6834636,2.20091574 87.1427136,1.68084467 86.4892528,1.68084467 M86.4892528,2.94712893 L86.9563534,10.6321645 L84.4055758,10.6321645 L83.8306744,2.94712893 L86.4892528,2.94712893" id="Fill-46" fill="#FFFFFF" mask="url(#mask-4)"></path>
                <path d="M83.8306307,21.0831249 C83.7602547,21.0831249 83.6894422,21.0708406 83.6207028,21.0454904 C83.3755322,20.9549218 83.2121943,20.7167188 83.2121943,20.4500386 L83.2121943,16.1846071 C83.2121943,16.0380893 83.2618394,15.8961503 83.3526191,15.7829117 L86.6610576,11.6579675 L86.6610576,1.6601401 C86.6610576,1.31048528 86.9379792,1.02694213 87.2796032,1.02694213 L90.4770767,1.02694213 C90.8187006,1.02694213 91.0956222,1.31048528 91.0956222,1.6601401 L91.0956222,20.4500386 C91.0956222,20.7995817 90.8187006,21.0831249 90.4770767,21.0831249 L87.2796032,21.0831249 C86.9379792,21.0831249 86.6610576,20.7995817 86.6610576,20.4500386 L86.6610576,17.9517543 L84.3066784,20.8544142 C84.1868754,21.0021604 84.0110989,21.0831249 83.8306307,21.0831249" id="Fill-47" fill="#00A1E9" mask="url(#mask-4)"></path>
                <path d="M90.4770658,0.393855838 L87.2795923,0.393855838 C86.5963444,0.393855838 86.0425012,0.960718782 86.0425012,1.6601401 L86.0425012,11.4313787 L82.8744874,15.3812162 C82.692819,15.6076934 82.5935287,15.8915716 82.5935287,16.1846071 L82.5935287,20.4500386 C82.5935287,20.9835107 82.9203137,21.4598051 83.4106548,21.6410538 C83.5480245,21.6917543 83.6899768,21.7163228 83.8304016,21.7163228 C84.1914471,21.7163228 84.542891,21.5542822 84.782606,21.2587898 L86.0425012,19.7055005 L86.0425012,20.4500386 C86.0425012,21.1493482 86.5963444,21.7162112 87.2795923,21.7162112 L90.4770658,21.7162112 C91.1603137,21.7162112 91.714266,21.1493482 91.714266,20.4500386 L91.714266,1.6601401 C91.714266,0.960718782 91.1603137,0.393855838 90.4770658,0.393855838 M90.4770658,1.6601401 L90.4770658,20.4500386 L87.2795923,20.4500386 L87.2795923,16.1978964 L83.8307289,20.4500386 L83.8307289,16.1846071 L87.2795923,11.8844447 L87.2795923,1.6601401 L90.4770658,1.6601401" id="Fill-48" fill="#FFFFFF" mask="url(#mask-4)"></path>
                <path d="M95.8659952,20.8993188 C95.5243713,20.8993188 95.2474497,20.6157756 95.2474497,20.2662325 L95.2474497,18.7586183 C95.2474497,18.4089635 95.5243713,18.1254203 95.8659952,18.1254203 L96.3971435,18.1254203 L96.3971435,14.1702223 L91.1596372,14.1702223 C90.8180132,14.1702223 90.5410916,13.8867909 90.5410916,13.537136 L90.5410916,12.1030041 C90.5410916,11.7534609 90.8180132,11.4699178 91.1596372,11.4699178 L96.3971435,11.4699178 L96.3971435,10.1174203 C96.3971435,9.76776548 96.6740651,9.48422234 97.0156891,9.48422234 L100.823852,9.48422234 C101.165476,9.48422234 101.442398,9.76776548 101.442398,10.1174203 L101.442398,11.4699178 L101.757944,11.4699178 C102.099568,11.4699178 102.37649,11.7534609 102.37649,12.1030041 L102.37649,13.537136 C102.37649,13.8867909 102.099568,14.1702223 101.757944,14.1702223 L101.442398,14.1702223 L101.442398,20.2662325 C101.442398,20.6157756 101.165476,20.8993188 100.823852,20.8993188 L95.8659952,20.8993188 Z" id="Fill-49" fill="#00A1E9" mask="url(#mask-4)"></path>
                <path d="M100.823874,8.85115838 L97.0157109,8.85115838 C96.332463,8.85115838 95.7785107,9.41802132 95.7785107,10.1174426 L95.7785107,10.8367421 L91.159659,10.8367421 C90.4764111,10.8367421 89.9225679,11.4037168 89.9225679,12.1030264 L89.9225679,13.5370467 C89.9225679,14.236468 90.4764111,14.803331 91.159659,14.803331 L95.7785107,14.803331 L95.7785107,17.4954832 C95.13607,17.5413817 94.628926,18.0893716 94.628926,18.7585289 L94.628926,20.2661431 C94.628926,20.9654528 95.1827692,21.5324274 95.8660171,21.5324274 L97.0157109,21.5324274 L100.823874,21.5324274 C101.507122,21.5324274 102.061074,20.9654528 102.061074,20.2661431 L102.061074,18.7585289 L102.061074,14.7650264 C102.597787,14.6267726 102.995166,14.1293716 102.995166,13.5370467 L102.995166,12.1030264 C102.995166,11.5107015 102.597787,11.0134122 102.061074,10.8750467 L102.061074,10.1174426 C102.061074,9.41802132 101.507122,8.85115838 100.823874,8.85115838 M100.823874,10.1174426 L100.823874,12.1030264 L101.757966,12.1030264 L101.757966,13.5370467 L100.823874,13.5370467 L100.823874,18.7585289 L100.823874,20.2661431 L97.0157109,20.2661431 L95.8660171,20.2661431 L95.8660171,18.7585289 L97.0157109,18.7585289 L97.0157109,13.5370467 L91.159659,13.5370467 L91.159659,12.1030264 L97.0157109,12.1030264 L97.0157109,10.1174426 L100.823874,10.1174426" id="Fill-50" fill="#FFFFFF" mask="url(#mask-4)"></path>
                <path d="M92.740469,18.7298284 C92.4634382,18.7298284 92.2201226,18.5413208 92.1450548,18.2682751 L91.1031618,14.4809249 C91.0506798,14.2900721 91.088541,14.0850365 91.2055071,13.9270162 C91.3223641,13.7689959 91.5049054,13.6761939 91.698576,13.6761939 L95.1115421,13.6761939 C95.3886819,13.6761939 95.6318885,13.8647015 95.7069562,14.1376355 L96.7488493,17.9250975 C96.8014404,18.1159503 96.76347,18.3208741 96.646613,18.4788944 C96.529756,18.6369147 96.3472147,18.7298284 96.1534351,18.7298284 L92.740469,18.7298284 Z" id="Fill-51" fill="#00A1E9" mask="url(#mask-4)"></path>
                <path d="M95.1115857,13.0430518 L91.6986196,13.0430518 C91.3111694,13.0430518 90.9461959,13.2287675 90.7123728,13.5448081 C90.4784406,13.8608487 90.4027181,14.2708081 90.5076821,14.6525137 L91.5495751,18.439864 C91.6998198,18.9858437 92.1863421,19.3629706 92.7404035,19.3629706 L96.1534787,19.3629706 C96.5408198,19.3629706 96.9057933,19.1772548 97.1397255,18.8612142 C97.3735486,18.5450619 97.4492711,18.1352142 97.3443071,17.7535086 L96.3024141,13.9661584 C96.1522785,13.4201787 95.6657563,13.0430518 95.1115857,13.0430518 M95.1115857,14.309336 L96.1534787,18.0966863 L92.7404035,18.0966863 L91.6986196,14.309336 L95.1115857,14.309336" id="Fill-52" fill="#FFFFFF" mask="url(#mask-4)"></path>
                <path d="M95.2181536,5.6403868 C95.3389386,5.66964569 95.4495763,5.73575736 95.5343549,5.83168629 L95.7972013,6.12896548 L97.0797913,4.9134934 L97.0797913,4.65719898 L96.9524597,4.53625482 L95.8869989,4.53625482 L95.2181536,5.6403868 Z M90.7644947,11.9639909 C90.5069947,11.9639909 90.276554,11.8008335 90.1856653,11.5543665 C90.0948856,11.3078995 90.1625339,11.0296051 90.3558771,10.8556152 L92.5835794,8.84892487 L90.6972828,6.67706701 C90.6121769,6.57901624 90.5606769,6.45885381 90.5457288,6.33388934 C90.4168697,6.28397056 90.3059047,6.19072183 90.2331282,6.06586904 C90.1215085,5.87434619 90.1167076,5.6368132 90.2202532,5.4406 L92.3759428,1.35909746 C92.4839619,1.15450863 92.6929078,1.02697563 92.9200752,1.02697563 L96.153446,1.02697563 C96.4681197,1.02697563 96.727911,1.26741218 96.7669725,1.57853909 L100.06941,1.57853909 C100.198378,1.57853909 100.324073,1.61974721 100.428928,1.69646802 L101.434924,2.43196041 C101.597498,2.55067107 101.693951,2.74264061 101.693951,2.94711777 L101.693951,6.32998071 C101.693951,6.51569645 101.614192,6.69214315 101.476058,6.81241726 L95.7278072,11.8132294 C95.6159693,11.9104985 95.4740169,11.9639909 95.3271547,11.9639909 L90.7644947,11.9639909 Z" id="Fill-53" fill="#00A1E9" mask="url(#mask-4)"></path>
                <path d="M96.1534569,0.393855838 L92.9200861,0.393855838 C92.4656423,0.393855838 92.0478594,0.648810152 91.8317122,1.05798782 L89.6761317,5.13960203 C89.4689315,5.53191675 89.4787514,6.00698274 89.7018817,6.3901401 C89.7857874,6.53420102 89.8952249,6.65726701 90.0223382,6.75475939 C90.0738382,6.87804873 90.1449781,6.99407919 90.234994,7.09771371 L91.7083086,8.79405888 L89.9471613,10.3802924 C89.5608022,10.7283838 89.4252874,11.2849726 89.6070649,11.7779066 C89.7887334,12.2708406 90.2497238,12.5970437 90.7645056,12.5970437 L95.3271656,12.5970437 C95.6206719,12.5970437 95.9046857,12.4902822 96.1283615,12.2956325 L101.876613,7.2948203 C102.153098,7.05427208 102.312508,6.70149036 102.312508,6.32994721 L102.312508,3.4619066 L102.312508,2.94708426 C102.312508,2.53812995 102.119601,2.15441421 101.794453,1.91665787 L100.788457,1.18127716 C100.578638,1.02783553 100.327248,0.945419289 100.069421,0.945419289 L97.1748372,0.945419289 C96.9520342,0.612404061 96.5776772,0.393855838 96.1534569,0.393855838 M96.1534569,1.6601401 L96.1534569,2.21170355 L100.069421,2.21170355 L101.075417,2.94708426 L101.075417,3.4619066 L101.075417,6.32994721 L95.3271656,11.3308711 L90.7645056,11.3308711 L93.4589813,8.90394721 L91.1597026,6.25646497 L95.0756666,6.25646497 L95.7582599,7.02869848 L97.6982387,5.19007919 L97.6982387,4.38110457 L97.1953499,3.90313503 L95.5426582,3.90313503 L94.4289707,5.74164264 L90.7645056,5.74164264 L92.9200861,1.6601401 L96.1534569,1.6601401" id="Fill-54" fill="#FFFFFF" mask="url(#mask-4)"></path>
                <path d="M10.1867218,10.7778335 L8.05754597,10.7778335 C7.92148559,10.7778335 7.81019322,10.6639249 7.81019322,10.5245543 L7.81019322,8.34543756 C7.81019322,8.20606701 7.92148559,8.09215838 8.05754597,8.09215838 L10.1867218,8.09215838 C10.3227822,8.09215838 10.4341837,8.20606701 10.4341837,8.34543756 L10.4341837,10.5245543 C10.4341837,10.6639249 10.3227822,10.7778335 10.1867218,10.7778335" id="Fill-55" fill="#2EA7E0" mask="url(#mask-4)"></path>
                <path d="M9.59393718,1.37790355 L3.03390646,1.37790355 L2.09032172,1.37790355 C1.62824015,1.37790355 1.25017341,1.76485787 1.25017341,2.23780203 L1.25017341,3.2036802 L1.25017341,8.82127411 C1.2436268,8.86426904 1.2371893,8.90737563 1.2371893,8.95204569 L1.2371893,9.91792386 C1.2371893,10.390868 1.61525604,10.7778223 2.07733761,10.7778223 L2.09032172,10.7778223 L3.03390646,10.7778223 L6.62897744,10.7778223 C7.091059,10.7778223 7.46912574,10.390868 7.46912574,9.91792386 L7.46912574,8.95204569 C7.46912574,8.47910152 7.091059,8.09214721 6.62897744,8.09214721 L4.29423803,8.09214721 C4.06226981,8.09214721 3.87416388,7.89961929 3.87416388,7.66219797 L3.87416388,4.49352792 C3.87416388,4.2561066 4.06226981,4.06357868 4.29423803,4.06357868 L9.59393718,4.06357868 C10.0560187,4.06357868 10.4341946,3.67662437 10.4341946,3.2036802 L10.4341946,2.23791371 C10.4341946,1.76485787 10.0560187,1.37790355 9.59393718,1.37790355" id="Fill-56" fill="#8FC31F" mask="url(#mask-4)"></path>
                <path d="M18.0505972,4.49358376 L18.0505972,7.66214213 C18.0505972,7.89967513 17.8624913,8.09209137 17.6305231,8.09209137 L14.5347403,8.09209137 C14.3026629,8.09209137 14.114557,7.89967513 14.114557,7.66214213 L14.114557,4.49358376 C14.114557,4.25616244 14.3026629,4.06363452 14.5347403,4.06363452 L17.6305231,4.06363452 C17.8624913,4.06363452 18.0505972,4.25616244 18.0505972,4.49358376 M19.8344394,1.37795939 L18.8908547,1.37795939 L13.2744087,1.37795939 L12.3308239,1.37795939 C11.8686333,1.37795939 11.4905665,1.76491371 11.4905665,2.23785787 L11.4905665,3.20362437 L11.4905665,8.95210152 L11.4905665,9.91786802 C11.4905665,10.3908122 11.8686333,10.7777665 12.3308239,10.7777665 L13.2744087,10.7777665 L18.8908547,10.7777665 L19.8344394,10.7777665 C20.296521,10.7777665 20.6745877,10.3908122 20.6745877,9.91786802 L20.6745877,8.95210152 L20.6745877,3.20362437 L20.6745877,2.23785787 C20.6745877,1.76491371 20.296521,1.37795939 19.8344394,1.37795939" id="Fill-57" fill="#EA5515" mask="url(#mask-4)"></path>
                <path d="M7.81016049,14.4479695 L7.81016049,17.6165279 C7.81016049,17.8540609 7.62205456,18.0464772 7.39008633,18.0464772 L4.29419439,18.0464772 C4.06222617,18.0464772 3.87412023,17.8540609 3.87412023,17.6165279 L3.87412023,14.4479695 C3.87412023,14.2105482 4.06222617,14.0180203 4.29419439,14.0180203 L7.39008633,14.0180203 C7.62205456,14.0180203 7.81016049,14.2105482 7.81016049,14.4479695 M9.59400265,11.3323452 L8.65030879,11.3323452 L3.03397193,11.3323452 L2.09027807,11.3323452 C1.6281965,11.3323452 1.25012977,11.7192995 1.25012977,12.1922437 L1.25012977,13.1580102 L1.25012977,18.9064873 L1.25012977,19.8722538 C1.25012977,20.345198 1.6281965,20.7321523 2.09027807,20.7321523 L3.03397193,20.7321523 L8.65030879,20.7321523 L9.59400265,20.7321523 C10.0560842,20.7321523 10.434151,20.345198 10.434151,19.8722538 L10.434151,18.9064873 L10.434151,13.1580102 L10.434151,12.1922437 C10.434151,11.7192995 10.0560842,11.3323452 9.59400265,11.3323452" id="Fill-58" fill="#2EA7E0" mask="url(#mask-4)"></path>
                <path d="M20.4271695,14.0179868 L18.2979936,14.0179868 C18.1619333,14.0179868 18.0506409,13.9040782 18.0506409,13.7647076 L18.0506409,11.5855909 C18.0506409,11.4462203 18.1619333,11.3323117 18.2979936,11.3323117 L20.4271695,11.3323117 C20.5632299,11.3323117 20.6746314,11.4462203 20.6746314,11.5855909 L20.6746314,13.7647076 C20.6746314,13.9040782 20.5632299,14.0179868 20.4271695,14.0179868" id="Fill-59" fill="#F8B62D" mask="url(#mask-4)"></path>
                <path d="M20.4271695,16.8379624 L14.5462405,16.8379624 C14.4101801,16.8379624 14.2987786,16.7240538 14.2987786,16.5846832 L14.2987786,14.4055665 C14.2987786,14.2661959 14.4101801,14.1522873 14.5462405,14.1522873 L20.4271695,14.1522873 C20.5632299,14.1522873 20.6746314,14.2661959 20.6746314,14.4055665 L20.6746314,16.5846832 C20.6746314,16.7240538 20.5632299,16.8379624 20.4271695,16.8379624" id="Fill-60" fill="#F8B62D" mask="url(#mask-4)"></path>
                <path d="M19.8344285,16.9722518 L18.8908437,16.9722518 C18.4286531,16.9722518 18.0505863,17.3592061 18.0505863,17.8322619 C18.0505863,17.9505259 17.9568607,18.0465665 17.8412039,18.0465665 L14.5347293,18.0465665 C14.302652,18.0465665 14.1145461,17.8540386 14.1145461,17.6165056 L14.1145461,14.4479472 C14.1145461,14.2105259 14.302652,14.017998 14.5347293,14.017998 L16.9260969,14.017998 C17.3882876,14.017998 17.7663543,13.6310437 17.7663543,13.1580995 L17.7663543,12.1922213 C17.7663543,11.7192772 17.3881785,11.3323228 16.9260969,11.3323228 L13.2743978,11.3323228 L12.330813,11.3323228 C11.8687315,11.3323228 11.4905556,11.7192772 11.4905556,12.1922213 L11.4905556,13.1580995 L11.4905556,18.906465 L11.4905556,19.8722315 C11.4905556,20.3451756 11.8687315,20.7322416 12.330813,20.7322416 L13.2743978,20.7322416 L18.8908437,20.7322416 L19.8344285,20.7322416 C20.2965101,20.7322416 20.6745768,20.3451756 20.6745768,19.8722315 L20.6745768,18.906465 L20.6745768,17.8321503 C20.6745768,17.3592061 20.2965101,16.9722518 19.8344285,16.9722518" id="Fill-61" fill="#F8B62D" mask="url(#mask-4)"></path>
                <polygon id="Fill-62" fill="#00A1E9" mask="url(#mask-4)" points="30.659663 1.80718274 27.5699904 1.80718274 25.3425062 10.0438934 27.3543887 10.0438934 25.8455041 15.6330102 30.659663 15.6330102 30.659663 14.0886548 29.2944766 14.0886548 31.0189628 7.17574112 29.1507785 7.17574112"></polygon>
                <polygon id="Fill-63" fill="#00A1E9" mask="url(#mask-4)" points="25.8455805 18.8688528 30.6597394 18.8688528 30.6597394 17.0303452 25.8455805 17.0303452"></polygon>
                <path d="M40.5034952,6.6241665 L34.5397516,6.6241665 L34.5397516,4.63858274 L39.4907346,4.63858274 C40.0500334,4.63858274 40.5034952,5.10259289 40.5034952,5.67503959 L40.5034952,6.6241665 Z M41.7608808,3.20445076 L39.425705,3.20445076 L39.425705,2.13806497 L35.6893363,2.13806497 L35.6893363,3.31478579 L31.4500789,3.31478579 L31.4500789,13.9415675 C31.4500789,15.4124406 31.0189846,20.1926944 31.0189846,20.1926944 L34.2523554,20.1926944 C34.2523554,20.1926944 34.6834497,16.4419736 34.6834497,14.8976183 L34.6834497,8.27885685 L43.4494698,8.27885685 L43.4494698,4.93273503 C43.4494698,4.93273503 43.5212643,3.20445076 41.7608808,3.20445076 Z" id="Fill-64" fill="#00A1E9" mask="url(#mask-4)"></path>
                <path d="M41.2040371,13.9783756 L41.5453337,13.9783756 L41.5453337,10.783797 L41.2040371,10.783797 L41.2040371,13.9783756 Z M39.0844629,13.9783756 L39.4257595,13.9783756 L39.4257595,10.783797 L39.0844629,10.783797 L39.0844629,13.9783756 Z M37.0322097,13.9783756 L37.3735064,13.9783756 L37.3735064,10.783797 L37.0322097,10.783797 L37.0322097,13.9783756 Z M42.2279269,9.30845685 L34.8989968,9.30845685 L34.8989968,20.1926497 L36.8389756,20.1926497 L37.0322097,20.1926497 L37.0322097,15.7846091 L37.3735064,15.7846091 L37.3735064,19.5307513 L39.0844629,19.5307513 L39.0844629,15.7846091 L39.4257595,15.7846091 L39.4257595,19.5307513 L41.2040371,19.5307513 L41.2040371,15.7846091 L41.5453337,15.7846091 L41.5453337,20.1926497 L41.58134,20.1926497 L43.4137362,20.1926497 L43.4137362,10.5220305 C43.4137362,9.38238579 42.2279269,9.30845685 42.2279269,9.30845685 Z" id="Fill-65" fill="#00A1E9" mask="url(#mask-4)"></path>
                <path d="M45.6050394,4.23406193 L45.6050394,2.54263046 C45.6050394,2.54263046 50.0240013,2.46903655 52.2873826,1.80713807 L52.2873826,3.64575736 C52.2873826,3.64575736 51.0298879,3.7928335 50.4550956,3.90316853 L50.4550956,6.40357462 L52.6825797,6.40357462 L52.6825797,8.38915838 L50.4191983,8.38915838 L50.4191983,19.9352497 L47.4013201,19.9352497 L47.4013201,8.38915838 L45.281746,8.38915838 L45.281746,6.62413299 L47.4013201,6.62413299 L47.4013201,4.23406193 C47.4013201,4.23406193 46.5032343,4.27080305 45.6050394,4.23406193" id="Fill-66" fill="#00A1E9" mask="url(#mask-4)"></path>
                <path d="M45.2817023,9.71293299 L47.0420858,9.71293299 C47.0420858,9.71293299 47.0405583,16.4419178 46.7905869,19.1262528 L44.8865053,19.1262528 C44.8865053,19.1262528 45.4254004,13.2797249 45.2817023,9.71293299" id="Fill-67" fill="#00A1E9" mask="url(#mask-4)"></path>
                <polygon id="Fill-68" fill="#00A1E9" mask="url(#mask-4)" points="51.1377542 15.4859898 52.682536 15.4859898 52.682536 9.71294416 51.1377542 9.71294416"></polygon>
                <path d="M58.8618923,6.88153299 L56.6344082,6.88153299 L56.6344082,3.97663959 L58.0184707,3.97663959 C58.484262,3.97663959 58.8618923,4.36314721 58.8618923,4.83988832 L58.8618923,6.88153299 Z M60.6043817,2.13813198 L53.3651401,2.13813198 L53.3651401,8.42588832 L62.3826592,8.42588832 L62.3826592,3.9582132 C62.3826592,2.95291371 61.5864823,2.13813198 60.6043817,2.13813198 Z" id="Fill-69" fill="#00A1E9" mask="url(#mask-4)"></path>
                <polygon id="Fill-70" fill="#00A1E9" mask="url(#mask-4)" points="59.7600108 18.1667736 59.7600108 15.6347635 62.3826919 15.6347635 62.3826919 13.8662761 59.7600108 13.8662761 59.7600108 11.4813421 62.5622873 11.4813421 62.5622873 9.7129665 53.0058731 9.7129665 53.0058731 11.4813421 55.7721432 11.4813421 55.7721432 13.8662761 53.23064 13.8662761 53.23064 15.6347635 55.7721432 15.6347635 55.7721432 18.1667736 52.6825797 18.1667736 52.6825797 19.9352609 62.7745066 19.9352609 62.7745066 18.1667736"></polygon>
                <polygon id="Fill-71" fill="#00A1E9" mask="url(#mask-4)" points="71.3642592 1.66009543 75.2802232 1.66009543 75.2802232 20.2661766 69.5679785 20.2661766 69.5679785 18.5747452 71.3642592 18.5747452"></polygon>
                <polygon id="Fill-72" fill="#00A1E9" mask="url(#mask-4)" points="66.4423431 4.38113807 70.2505063 4.38113807 68.1309321 16.515534 64.2508654 16.515534"></polygon>
                <polygon id="Fill-73" fill="#00A1E9" mask="url(#mask-4)" points="80.1662202 4.38113807 76.3580571 4.38113807 78.4776313 16.515534 82.357698 16.515534"></polygon>
                <polygon id="Fill-74" fill="#00A1E9" mask="url(#mask-4)" points="83.8307071 2.9470731 86.4892855 2.9470731 86.956277 10.6322203 84.4054995 10.6322203"></polygon>
                <polygon id="Fill-75" fill="#00A1E9" mask="url(#mask-4)" points="87.2796359 1.66009543 87.2796359 11.8845117 83.8306635 16.1845624 83.8306635 20.4499939 87.2796359 16.1979635 87.2796359 20.4499939 90.4771094 20.4499939 90.4771094 1.66009543"></polygon>
                <polygon id="Fill-76" fill="#00A1E9" mask="url(#mask-4)" points="101.757988 12.1030264 100.823896 12.1030264 100.823896 10.1174426 97.0157327 10.1174426 97.0157327 12.1030264 91.1596808 12.1030264 91.1596808 13.5370467 97.0157327 13.5370467 97.0157327 18.7585289 95.8660389 18.7585289 95.8660389 20.2661431 97.0157327 20.2661431 100.823896 20.2661431 100.823896 18.7585289 100.823896 13.5370467 101.757988 13.5370467"></polygon>
                <polygon id="Fill-77" fill="#00A1E9" mask="url(#mask-4)" points="91.6985869 14.3092914 95.111553 14.3092914 96.153446 18.0967533 92.7404799 18.0967533"></polygon>
                <polygon id="Fill-78" fill="#00A1E9" mask="url(#mask-4)" points="90.7644947 5.74166497 94.4289597 5.74166497 95.5427564 3.90315736 97.195339 3.90315736 97.6983369 4.3811269 97.6983369 5.19010152 95.7582489 7.02860914 95.0756557 6.25648731 91.1596917 6.25648731 93.4589703 8.90396954 90.7644947 11.3308934 95.3271547 11.3308934 101.075406 6.32996954 101.075406 3.46181726 101.075406 2.9471066 100.06941 2.21161421 96.153446 2.21161421 96.153446 1.66005076 92.9200752 1.66005076"></polygon>
            </g>
        </g>
    </g>
</svg>